# xmcd CD database file
#
# Track frame offsets:
#	150
#	16449
#	40824
#	63153
#	95405
#	110232
#	128974
#	137763
#	160617
#	182826
#
# Disc length: 2605 seconds
#
# Revision: 2
# Processed by: cddbd v1.5.2PL0 Copyright (c) Steve Scherf et al.
# Submitted via: CDex 1.51
#
DISCID=850a2b0a
DTITLE=Open Trio - Good Bye Everytime
DYEAR=2007
DGENRE=Jazz
TTITLE0=Untitled hymn
TTITLE1=Last crooked mile
TTITLE2=Orange country
TTITLE3=Enheten för obeställbara brev
TTITLE4=27
TTITLE5=New picture, old frame
TTITLE6=En liten en
TTITLE7=Lillsjö
TTITLE8=Heartland
TTITLE9=Goodbye everytime
EXTD=YEAR: 2007
EXTT0=
EXTT1=
EXTT2=
EXTT3=
EXTT4=
EXTT5=
EXTT6=
EXTT7=
EXTT8=
EXTT9=
PLAYORDER=
